<svg width="60" height="52" viewBox="0 0 60 52" fill="none" xmlns="http://www.w3.org/2000/svg">
<path d="M37.6207 4.449C34.2985 -1.48993 25.6961 -1.47607 22.3773 4.449C22.3773 4.45247 9.27241 25.5852 9.26894 25.5852C16.8785 17.8584 30.8686 16.9021 33.5938 16.9506C38.6726 17.4911 42.0955 11.7739 39.4051 7.33531C38.8982 6.50372 37.6207 4.449 37.6207 4.449Z" fill="url(#paint0_linear)"/>
<path d="M55.5337 50.5814C59.7342 48.2391 61.2374 42.9412 58.8906 38.7486C58.8906 38.7486 57.3875 35.6995 55.6552 33.5339C50.6389 27.2588 42.5398 26.0495 36.607 27.7682C27.8345 30.308 23.4882 38.863 19.3884 43.0382C19.3849 43.0417 19.3918 43.0486 19.3953 43.0556C25.8523 36.7181 37.1764 37.47 42.4739 45.2974C43.2793 46.4859 44.2305 48.1179 44.5568 48.5129C47.1813 51.7076 51.7949 52.6673 55.5337 50.5814Z" fill="url(#paint1_linear)"/>
<path d="M19.3884 43.0417C23.0959 39.2649 27.0083 31.9053 34.2117 28.6552C32.535 29.3031 30.577 30.0446 29.8723 30.0446C26.3175 30.0446 23.4361 27.1687 23.4361 23.6206C23.4361 20.5264 25.6336 17.9485 28.5531 17.3386C23.0265 18.0905 14.5907 20.1799 9.2724 25.5852L1.10741 38.7521C-1.23933 42.9447 0.263836 48.2426 4.46436 50.5849C8.31773 52.7332 13.3306 51.7665 15.7329 48.253C16.4619 47.1858 17.3853 45.734 19.3918 43.0625C19.3918 43.0521 19.3849 43.0452 19.3884 43.0417Z" fill="url(#paint2_linear)"/>
<defs>
<linearGradient id="paint0_linear" x1="23.2793" y1="21.7067" x2="32.2619" y2="5.55373" gradientUnits="userSpaceOnUse">
<stop offset="0.1455" stop-color="#FF8903"/>
<stop offset="1" stop-color="#FFE100"/>
</linearGradient>
<linearGradient id="paint1_linear" x1="19.3872" y1="39.3741" x2="59.9985" y2="39.3741" gradientUnits="userSpaceOnUse">
<stop offset="0.1455" stop-color="#FF8903"/>
<stop offset="1" stop-color="#FFE100"/>
</linearGradient>
<linearGradient id="paint2_linear" x1="24.2173" y1="16.9328" x2="11.5546" y2="49.2262" gradientUnits="userSpaceOnUse">
<stop offset="0.0121" stop-color="#7A0041"/>
<stop offset="1" stop-color="#F00080"/>
</linearGradient>
</defs>
</svg>
