<svg width="219" height="53" viewBox="0 0 219 53" fill="none" xmlns="http://www.w3.org/2000/svg">
<g clip-path="url(#clip0)">
<path d="M37.6207 4.44901C34.2985 -1.48993 25.6961 -1.47607 22.3773 4.44901C22.3773 4.45247 9.27241 25.5853 9.26894 25.5853C16.8785 17.8584 30.8686 16.9021 33.5938 16.9506C38.6726 17.4911 42.0955 11.7739 39.4051 7.33532C38.8982 6.50373 37.6207 4.44901 37.6207 4.44901Z" fill="white"/>
<path d="M55.5337 50.5816C59.7342 48.2393 61.2374 42.9414 58.8906 38.7488C58.8906 38.7488 57.3875 35.6996 55.6552 33.534C50.6389 27.259 42.5398 26.0497 36.607 27.7683C27.8345 30.3082 23.4882 38.8631 19.3884 43.0384C19.3849 43.0419 19.3918 43.0488 19.3953 43.0557C25.8523 36.7183 37.1764 37.4702 42.4739 45.2976C43.2793 46.486 44.2305 48.118 44.5568 48.513C47.1813 51.7077 51.7949 52.6675 55.5337 50.5816Z" fill="white"/>
<path d="M19.3884 43.0419C23.0959 39.2651 27.0083 31.9055 34.2117 28.6554C32.535 29.3034 30.577 30.0449 29.8723 30.0449C26.3175 30.0449 23.4361 27.169 23.4361 23.6208C23.4361 20.5266 25.6336 17.9487 28.5531 17.3389C23.0265 18.0908 14.5907 20.1801 9.2724 25.5855L1.10741 38.7523C-1.23933 42.9449 0.263836 48.2428 4.46436 50.5851C8.31773 52.7334 13.3306 51.7667 15.7329 48.2532C16.4619 47.186 17.3853 45.7342 19.3918 43.0627C19.3918 43.0523 19.3849 43.0454 19.3884 43.0419Z" fill="white"/>
<path d="M77.5986 22.1274H80.5772L87.2251 40.3878H83.2363L82.0144 36.6179H74.8874L73.7175 40.3878H69.7287L75.79 23.3471C76.1093 22.5363 76.7134 22.1274 77.5986 22.1274ZM78.4491 25.7899L75.8976 33.541H81.0042L78.4491 25.7899Z" fill="white"/>
<path d="M101.774 40.3877H98.1048V32.1065V31.3615C98.1048 30.5126 97.8479 29.8924 97.3341 29.5043C96.8203 29.1162 96.2441 28.9187 95.6053 28.9187C94.9665 28.9187 94.4007 29.1128 93.9043 29.5043C93.4078 29.8924 93.1614 30.5126 93.1614 31.3615V40.3843H89.4399V32.103C89.4399 29.6949 90.0682 28.0871 91.3284 27.2729C92.5886 26.4586 93.9772 26.0151 95.5046 25.9458C96.3204 25.9458 97.1189 26.0359 97.8965 26.2126C98.6776 26.3893 99.3858 26.7427 100.025 27.2729C100.556 26.812 101.184 26.4863 101.913 26.2923C102.639 26.0983 103.392 25.9839 104.173 25.9458C105.732 25.9458 107.169 26.3512 108.481 27.1655C109.793 27.9797 110.449 29.6256 110.449 32.103V40.3843H108.589C108.058 40.3843 107.624 40.2145 107.287 39.8784C106.95 39.5423 106.78 39.1092 106.78 38.579V31.365C106.78 30.5161 106.523 29.8959 106.009 29.5078C105.496 29.1197 104.919 28.9222 104.281 28.9222C103.642 28.9222 103.066 29.1162 102.552 29.5078C102.038 29.8959 101.781 30.5161 101.781 31.365V32.11V40.3877H101.774Z" fill="white"/>
<path d="M121.857 39.8055C121.114 40.1936 120.322 40.4327 119.489 40.5228C118.656 40.6094 117.92 40.6545 117.281 40.6545C116.004 40.6545 114.89 40.308 113.931 39.6184C112.973 38.9289 112.494 37.7855 112.494 36.1951C112.494 34.7086 112.928 33.6483 113.796 33.0108C114.664 32.3732 115.771 31.9505 117.122 31.7356C117.299 31.7356 117.511 31.7079 117.76 31.656C118.007 31.604 118.292 31.5589 118.611 31.5243C120.17 31.3129 120.951 30.8521 120.951 30.1452C120.951 29.6151 120.677 29.2686 120.128 29.1092C119.58 28.9498 119.073 28.8701 118.611 28.8701C118.115 28.8701 117.67 28.9394 117.281 29.0815C116.893 29.2236 116.608 29.4904 116.431 29.8784H112.869C113.011 28.78 113.508 27.8792 114.358 27.1723C115.317 26.358 116.681 25.9526 118.455 25.9526C120.44 25.9526 121.93 26.2887 122.923 26.9609C123.95 27.6678 124.464 28.6588 124.464 29.9339V34.764C124.464 36.1812 124.207 37.2865 123.693 38.08C123.18 38.8769 122.565 39.4521 121.857 39.8055ZM121.006 33.2741C120.51 33.5236 119.819 33.7523 118.934 33.9636L117.712 34.2304C117.073 34.4071 116.611 34.6358 116.33 34.9199C116.08 35.308 115.959 35.6996 115.959 36.0876C115.959 36.6178 116.118 37.044 116.438 37.3627C116.757 37.6469 117.219 37.7855 117.82 37.7855C118.812 37.7855 119.593 37.5013 120.159 36.9366C120.725 36.3718 121.01 35.5921 121.01 34.6012V33.2741H121.006Z" fill="white"/>
<path d="M126.356 40.3878V37.5742L133.962 29.189H128.592C128.095 29.189 127.668 29.0192 127.314 28.6831C126.96 28.347 126.783 27.9312 126.783 27.4358V26.2681H138.378V29.293L130.876 37.3109H138.642V40.3912H126.356V40.3878Z" fill="white"/>
<path d="M140.908 22.1274H142.821C143.318 22.1274 143.745 22.3042 144.099 22.6576C144.453 23.011 144.63 23.4372 144.63 23.9327V25.0484H140.908V22.1274ZM140.908 26.2681H142.821C143.318 26.2681 143.745 26.4448 144.099 26.7982C144.453 27.1516 144.63 27.5778 144.63 28.0733V40.3878H140.908V26.2681Z" fill="white"/>
<path d="M158.488 40.3877H156.627C156.096 40.3877 155.662 40.2179 155.326 39.8818C154.989 39.5457 154.819 39.1126 154.819 38.5825V31.3649C154.819 30.516 154.562 29.8958 154.048 29.5077C153.534 29.1197 152.958 28.9222 152.319 28.9222C151.681 28.9222 151.115 29.1162 150.618 29.5077C150.122 29.8958 149.872 30.516 149.872 31.3649V40.3877H146.15V32.1065C146.15 29.6983 146.779 28.0906 148.039 27.2763C149.296 26.462 150.688 26.0185 152.215 25.9492C153.774 25.9492 155.211 26.3546 156.523 27.1689C157.836 27.9832 158.492 29.629 158.492 32.1065V40.3877H158.488Z" fill="white"/>
<path d="M169.795 39.5388V38.6379C169.156 39.6289 168.299 40.2491 167.216 40.4952C166.132 40.7412 165.063 40.6545 163.997 40.2284C162.935 39.8022 162.022 39.0156 161.258 37.8653C160.495 36.7149 160.116 35.2042 160.116 33.3262C160.116 31.1328 160.623 29.3553 161.633 27.9901C162.644 26.6284 164.265 25.9458 166.5 25.9458C168.201 25.9458 169.781 26.4066 171.232 27.3249C172.687 28.2465 173.412 29.9444 173.412 32.4218V39.9061C173.412 42.3836 172.687 44.0745 171.232 44.9753C169.778 45.8762 168.201 46.3301 166.5 46.3301C163.237 46.3301 161.217 44.809 160.439 41.7668H164.32C164.605 42.2623 165.039 42.6434 165.622 42.9068C166.209 43.1736 166.792 43.2429 167.379 43.1181C167.965 42.9934 168.497 42.6504 168.976 42.0821C169.451 41.5208 169.725 40.6719 169.795 39.5388ZM163.734 33.4336C163.734 35.8764 164.442 37.2277 165.862 37.4945C167.278 37.7613 168.326 37.4321 169 36.5139C169.319 36.1258 169.548 35.5125 169.691 34.6844C169.833 33.8528 169.84 33.0316 169.719 32.2174C169.594 31.4031 169.302 30.6789 168.84 30.0414C168.378 29.4038 167.705 29.0851 166.82 29.0851C165.615 29.0851 164.799 29.5286 164.372 30.4121C163.945 31.2922 163.734 32.3005 163.734 33.4336Z" fill="white"/>
<path d="M178.887 38.9844V30.2146H175.721V29.4385C175.721 29.1301 175.828 28.8633 176.047 28.6485C176.266 28.4336 176.53 28.3228 176.839 28.3228H184.226V30.2146H181.091V38.9844H178.887Z" fill="white"/>
<path d="M185.427 38.9844V34.9858C185.427 34.1785 185.545 33.5028 185.785 32.9554C186.024 32.4079 186.347 31.9679 186.764 31.6387C187.156 31.3303 187.618 31.1016 188.145 30.9561C188.673 30.8106 189.215 30.7378 189.777 30.7378C189.819 30.7378 189.871 30.7378 189.933 30.7378C189.996 30.7378 190.048 30.7378 190.089 30.7378V32.938H189.374C188.774 32.938 188.329 33.0836 188.038 33.3712C187.746 33.6588 187.604 34.1161 187.604 34.7329V38.9775H185.427V38.9844Z" fill="white"/>
<path d="M196.373 38.6448C195.939 38.8735 195.477 39.0121 194.991 39.0641C194.505 39.1161 194.075 39.1403 193.703 39.1403C192.957 39.1403 192.308 38.9393 191.749 38.5374C191.19 38.1355 190.912 37.4702 190.912 36.5381C190.912 35.6719 191.165 35.0517 191.672 34.6775C192.179 34.3032 192.825 34.0572 193.613 33.9325C193.717 33.9325 193.842 33.9186 193.984 33.8874C194.13 33.8563 194.293 33.832 194.481 33.8112C195.39 33.6865 195.845 33.4197 195.845 33.0039C195.845 32.6955 195.685 32.4911 195.363 32.401C195.043 32.3074 194.748 32.2624 194.477 32.2624C194.189 32.2624 193.929 32.304 193.7 32.3871C193.471 32.4703 193.307 32.6262 193.203 32.8514H191.124C191.207 32.2104 191.495 31.6837 191.992 31.2714C192.551 30.7967 193.346 30.5576 194.384 30.5576C195.543 30.5576 196.411 30.7551 196.991 31.1467C197.591 31.559 197.89 32.1376 197.89 32.8826V35.7031C197.89 36.5277 197.741 37.1757 197.439 37.64C197.143 38.1008 196.786 38.4369 196.373 38.6448ZM195.876 34.8334C195.588 34.9789 195.182 35.1106 194.665 35.2353L193.95 35.3912C193.578 35.4952 193.307 35.6303 193.141 35.7932C192.995 36.0219 192.922 36.2471 192.922 36.4758C192.922 36.7841 193.016 37.0336 193.2 37.2207C193.387 37.387 193.655 37.4702 194.009 37.4702C194.588 37.4702 195.043 37.3039 195.376 36.9747C195.706 36.6455 195.873 36.1882 195.873 35.6095V34.8334H195.876Z" fill="white"/>
<path d="M204.09 38.9844H201.885L198.997 30.7413H201.295L202.941 36.5347L204.399 31.4828C204.565 30.9873 204.895 30.7378 205.392 30.7378H207.006L204.09 38.9844Z" fill="white"/>
<path d="M213.921 36.4446H215.473C215.244 37.3108 214.81 37.9726 214.168 38.4265C213.525 38.9012 212.72 39.1403 211.745 39.1403C210.564 39.1403 209.644 38.7592 208.981 37.9934C208.318 37.2484 207.988 36.1847 207.988 34.8022C207.988 33.4786 208.308 32.446 208.95 31.7045C209.613 30.9388 210.533 30.5576 211.713 30.5576C212.956 30.5576 213.918 30.9284 214.602 31.6733C215.265 32.4391 215.594 33.5028 215.594 34.8646C215.594 34.9477 215.594 35.0205 215.594 35.0828C215.594 35.1452 215.594 35.1868 215.594 35.2076C215.594 35.3115 215.584 35.3843 215.563 35.4259H210.193C210.214 36.0669 210.37 36.5416 210.658 36.85C210.929 37.1791 211.331 37.3455 211.87 37.3455C212.22 37.3455 212.522 37.2727 212.769 37.1272C212.831 37.1064 212.887 37.0717 212.939 37.0198C212.991 36.9678 213.046 36.9123 213.109 36.85C213.13 36.7876 213.206 36.7044 213.341 36.604C213.477 36.5035 213.671 36.4446 213.921 36.4446ZM210.193 34.026H213.359C213.317 33.4682 213.171 33.0559 212.925 32.7856C212.654 32.498 212.272 32.3525 211.776 32.3525C211.321 32.3525 210.95 32.498 210.658 32.7856C210.366 33.0732 210.214 33.489 210.193 34.026Z" fill="white"/>
<path d="M216.827 28.3262H217.945C218.233 28.3262 218.483 28.4232 218.691 28.6207C218.899 28.8182 219 29.0607 219 29.3483V38.9844H216.827V28.3262Z" fill="white"/>
<path d="M70.3709 51.2674V48.5889H69.8051V47.7262H70.3709V45.2349H72.8773C73.7626 45.2349 74.4291 45.5155 74.8734 46.0768C75.3178 46.6382 75.5434 47.3623 75.5434 48.2528C75.5434 49.1433 75.3213 49.8675 74.8734 50.4288C74.4291 50.9902 73.7626 51.2708 72.8773 51.2708H70.3709V51.2674ZM71.4297 46.0976V47.7296H73.0822V48.5924H71.4297V50.408H72.4712C72.8704 50.408 73.2071 50.3561 73.4814 50.2487C73.7556 50.1412 73.9639 49.9853 74.1028 49.7809C74.2451 49.5765 74.3423 49.3512 74.3979 49.1087C74.4534 48.8661 74.4812 48.582 74.4812 48.2563C74.4812 47.9306 74.4534 47.6465 74.3979 47.4039C74.3423 47.1614 74.2416 46.9396 74.1028 46.7317C73.9639 46.5238 73.7556 46.3714 73.4814 46.264C73.2071 46.1565 72.8704 46.1046 72.4712 46.1046H71.4297V46.0976Z" fill="white"/>
<path d="M77.2202 46.1461V45.2349H78.1853V46.1461H77.2202ZM77.2202 51.2674V46.898H78.1853V51.2674H77.2202Z" fill="white"/>
<path d="M87.2008 48.3603H86.2357C86.1975 48.097 86.0899 47.8925 85.9128 47.7505C85.7393 47.6084 85.5101 47.5391 85.2359 47.5391C85.0936 47.5391 84.9616 47.5634 84.8332 47.6084C84.7047 47.6534 84.5798 47.7297 84.4513 47.8371C84.3229 47.9445 84.2222 48.1108 84.1458 48.3326C84.0695 48.5543 84.0313 48.8211 84.0313 49.1295C84.0313 49.5418 84.1285 49.8918 84.3194 50.1863C84.5103 50.4774 84.802 50.6264 85.1908 50.6264C85.472 50.6264 85.7046 50.5398 85.8885 50.363C86.0725 50.1863 86.1871 49.9438 86.2322 49.6285H87.1973C87.107 50.1967 86.8918 50.6333 86.5481 50.9348C86.2079 51.2362 85.7531 51.3852 85.1908 51.3852C84.5242 51.3852 84.0035 51.1738 83.6286 50.7546C83.2537 50.3353 83.0662 49.7913 83.0662 49.1295C83.0662 48.4365 83.2537 47.8717 83.6251 47.4352C83.9966 46.9986 84.5312 46.7803 85.2255 46.7803C85.7601 46.7803 86.2114 46.9154 86.5794 47.1857C86.9508 47.4559 87.1556 47.8475 87.2008 48.3603Z" fill="white"/>
<path d="M92.6788 46.8982V51.2675H91.7311V50.6576H91.7137C91.5957 50.8725 91.4187 51.0457 91.1861 51.1808C90.9535 51.316 90.7139 51.3853 90.4709 51.3853C89.9016 51.3853 89.485 51.2432 89.2281 50.9626C88.9678 50.6819 88.8393 50.2488 88.8393 49.6701V46.8982H89.8044V49.5766C89.8044 49.9473 89.8738 50.2141 90.0162 50.3804C90.1585 50.5468 90.3668 50.6265 90.641 50.6265C91.3562 50.6265 91.7172 50.228 91.7172 49.4345V46.8982H92.6788ZM89.2837 45.0825H90.4189L91.1895 46.2918H90.4883L89.2837 45.0825Z" fill="white"/>
<path d="M94.5395 51.2674V46.8981H95.4525V47.5391L95.4699 47.5565C95.6226 47.3139 95.817 47.1234 96.0531 46.9848C96.2892 46.8462 96.5495 46.7769 96.8307 46.7769C97.3167 46.7769 97.6951 46.9051 97.9694 47.158C98.2436 47.4109 98.379 47.7817 98.379 48.2633V51.264H97.4139V48.5163C97.4035 48.1732 97.3306 47.9238 97.1952 47.7678C97.0598 47.6119 96.8481 47.5357 96.5599 47.5357C96.244 47.5357 95.9871 47.6466 95.7927 47.8649C95.5983 48.0831 95.5011 48.3569 95.5011 48.686V51.264H94.5395V51.2674Z" fill="white"/>
<path d="M104.294 46.8982V51.0388C104.294 51.6937 104.11 52.1823 103.746 52.508C103.378 52.8337 102.847 52.9965 102.146 52.9965C101.823 52.9965 101.528 52.9584 101.26 52.8787C100.993 52.799 100.754 52.6535 100.545 52.4387C100.337 52.2239 100.219 51.9571 100.191 51.6348H101.156C101.212 51.8878 101.33 52.0575 101.507 52.1476C101.684 52.2343 101.916 52.2793 102.205 52.2793C102.954 52.2793 103.329 51.9086 103.329 51.1636V50.4948H103.312C103.177 50.7374 102.993 50.9245 102.757 51.0596C102.524 51.1948 102.271 51.2606 102 51.2606C101.555 51.2606 101.181 51.1532 100.878 50.9384C100.576 50.7235 100.361 50.4498 100.229 50.1137C100.101 49.7776 100.035 49.393 100.035 48.9599C100.035 48.3466 100.215 47.8268 100.573 47.4041C100.931 46.9814 101.413 46.77 102.017 46.77C102.642 46.77 103.076 47.0091 103.312 47.4873H103.329V46.8878H104.294V46.8982ZM102.153 50.5087C102.548 50.5087 102.843 50.3597 103.038 50.0652C103.232 49.7707 103.329 49.4103 103.329 48.9876C103.329 48.5753 103.232 48.2322 103.038 47.955C102.843 47.6778 102.548 47.5392 102.153 47.5392C101.757 47.5392 101.465 47.6882 101.281 47.9862C101.094 48.2842 101.003 48.6411 101.003 49.0604C101.003 49.4554 101.101 49.7949 101.295 50.0791C101.486 50.3666 101.774 50.5087 102.153 50.5087Z" fill="white"/>
<path d="M109.45 51.2674V45.2349H110.508V47.9826L113.199 45.2349H114.504L112.091 47.643L114.674 51.2674H113.355L111.373 48.3845L110.508 49.2369V51.2639H109.45V51.2674Z" fill="white"/>
<path d="M115.959 51.2674V45.2349H116.924V47.4732H116.941C117.066 47.2688 117.243 47.1025 117.479 46.9743C117.712 46.8461 117.972 46.7802 118.253 46.7802C118.739 46.7802 119.118 46.9084 119.392 47.1614C119.666 47.4143 119.802 47.7851 119.802 48.2667V51.2674H118.837V48.5196C118.826 48.1766 118.753 47.9271 118.618 47.7712C118.483 47.6153 118.271 47.5391 117.983 47.5391C117.667 47.5391 117.41 47.6499 117.215 47.8682C117.021 48.0865 116.924 48.3603 116.924 48.6894V51.2674H115.959Z" fill="white"/>
<path d="M125.332 48.0485V50.2973C125.332 50.4151 125.349 50.5017 125.384 50.5502C125.419 50.6022 125.478 50.6265 125.561 50.6265H125.662C125.682 50.6265 125.731 50.6195 125.797 50.6091V51.2779C125.589 51.3506 125.384 51.3887 125.186 51.3887C124.756 51.3887 124.509 51.212 124.44 50.8551C124.259 51.0284 124.03 51.1635 123.752 51.2536C123.475 51.3437 123.2 51.3887 122.923 51.3887C122.499 51.3887 122.145 51.2779 121.857 51.0561C121.569 50.8344 121.426 50.519 121.426 50.1136C121.426 49.8538 121.471 49.6355 121.565 49.4588C121.659 49.282 121.794 49.1469 121.975 49.0534C122.155 48.9598 122.329 48.894 122.492 48.8559C122.655 48.8177 122.86 48.7831 123.11 48.7554C123.211 48.7346 123.343 48.7138 123.509 48.6965C123.676 48.6791 123.797 48.6618 123.884 48.6445C123.971 48.6272 124.061 48.5995 124.155 48.5648C124.249 48.5267 124.315 48.4747 124.356 48.4089C124.398 48.3396 124.419 48.2495 124.419 48.1386C124.419 47.7436 124.117 47.5461 123.513 47.5461C123.232 47.5461 123.006 47.605 122.836 47.7194C122.666 47.8337 122.572 48.0069 122.548 48.2391H121.583C121.617 47.7194 121.819 47.3486 122.187 47.1234C122.555 46.8982 123.016 46.7838 123.572 46.7838C124.051 46.7838 124.464 46.8878 124.808 47.0957C125.158 47.3036 125.332 47.6189 125.332 48.0485ZM124.367 49.7983V49.0811C124.276 49.1365 124.172 49.1816 124.054 49.2127C123.936 49.2439 123.78 49.2717 123.586 49.2924C123.391 49.3132 123.256 49.3306 123.183 49.3444C122.94 49.3825 122.749 49.4588 122.607 49.5627C122.464 49.6667 122.395 49.8399 122.395 50.0686C122.395 50.2661 122.489 50.4082 122.673 50.4948C122.857 50.5814 123.061 50.6265 123.284 50.6265C123.544 50.6265 123.79 50.5571 124.02 50.4186C124.249 50.28 124.367 50.0721 124.367 49.7983ZM123.054 46.2918L123.815 45.0825H124.957L123.756 46.2918H123.054Z" fill="white"/>
<path d="M126.779 47.6188V46.9016H127.508V45.5918H128.474V46.9016H129.345V47.6188H128.474V49.9507C128.474 50.1759 128.501 50.3319 128.553 50.4185C128.605 50.5051 128.734 50.5501 128.939 50.5501C129.119 50.5501 129.255 50.5398 129.345 50.5155V51.2605C129.064 51.2951 128.855 51.3124 128.72 51.3124C128.244 51.3124 127.928 51.2258 127.769 51.056C127.609 50.8828 127.522 50.5987 127.512 50.2002V47.6223H126.779V47.6188Z" fill="white"/>
<path d="M134.219 51.2674V45.2349H135.278V47.9826L137.968 45.2349H139.273L136.861 47.643L139.443 51.2674H138.124L136.142 48.3845L135.278 49.2369V51.2639H134.219V51.2674Z" fill="white"/>
<path d="M140.731 51.2674V45.2349H141.697V47.4732H141.714C141.839 47.2688 142.016 47.1025 142.252 46.9743C142.485 46.8461 142.745 46.7802 143.026 46.7802C143.512 46.7802 143.891 46.9084 144.165 47.1614C144.439 47.4143 144.574 47.7851 144.574 48.2667V51.2674H143.609V48.5196C143.599 48.1766 143.526 47.9271 143.391 47.7712C143.255 47.6153 143.043 47.5391 142.755 47.5391C142.439 47.5391 142.183 47.6499 141.988 47.8682C141.794 48.0865 141.697 48.3603 141.697 48.6894V51.2674H140.731Z" fill="white"/>
<path d="M150.101 48.0484V50.2972C150.101 50.415 150.118 50.5016 150.153 50.5501C150.188 50.6021 150.247 50.6263 150.33 50.6263H150.431C150.452 50.6263 150.5 50.6194 150.566 50.609V51.2777C150.358 51.3505 150.153 51.3886 149.955 51.3886C149.525 51.3886 149.278 51.2119 149.209 50.855C149.028 51.0283 148.799 51.1634 148.521 51.2535C148.244 51.3436 147.969 51.3886 147.692 51.3886C147.268 51.3886 146.914 51.2777 146.626 51.056C146.338 50.8342 146.196 50.5189 146.196 50.1135C146.196 49.8536 146.241 49.6354 146.334 49.4586C146.428 49.2819 146.564 49.1468 146.744 49.0532C146.925 48.9597 147.098 48.8938 147.261 48.8557C147.424 48.8176 147.629 48.783 147.879 48.7553C147.98 48.7345 148.112 48.7137 148.278 48.6963C148.445 48.679 148.567 48.6617 148.653 48.6444C148.74 48.627 148.83 48.5993 148.924 48.5647C149.018 48.5266 149.084 48.4746 149.126 48.4088C149.167 48.3395 149.188 48.2494 149.188 48.1385C149.188 47.7435 148.886 47.546 148.282 47.546C148.001 47.546 147.775 47.6049 147.605 47.7192C147.435 47.8336 147.341 48.0068 147.317 48.239H146.352C146.386 47.7192 146.588 47.3485 146.956 47.1233C147.324 46.898 147.786 46.7837 148.341 46.7837C148.82 46.7837 149.233 46.8876 149.577 47.0955C149.931 47.3034 150.101 47.6187 150.101 48.0484ZM149.136 49.7982V49.081C149.046 49.1364 148.942 49.1814 148.823 49.2126C148.705 49.2438 148.549 49.2715 148.355 49.2923C148.16 49.3131 148.025 49.3304 147.952 49.3443C147.709 49.3824 147.518 49.4586 147.376 49.5626C147.234 49.6665 147.164 49.8398 147.164 50.0685C147.164 50.266 147.258 50.408 147.442 50.4947C147.626 50.5813 147.831 50.6263 148.053 50.6263C148.313 50.6263 148.56 50.557 148.789 50.4184C149.021 50.2798 149.136 50.0719 149.136 49.7982Z" fill="white"/>
<path d="M155.614 50.7477C155.218 51.1738 154.68 51.3852 153.996 51.3852C153.312 51.3852 152.774 51.1738 152.378 50.7477C151.983 50.3215 151.785 49.7671 151.785 49.0775C151.785 48.4019 151.983 47.8509 152.378 47.4213C152.774 46.9916 153.312 46.7803 153.996 46.7803C154.68 46.7803 155.218 46.9951 155.614 47.4213C156.01 47.8475 156.207 48.4019 156.207 49.0775C156.204 49.7671 156.006 50.3215 155.614 50.7477ZM153.069 50.169C153.281 50.4739 153.59 50.6264 153.996 50.6264C154.402 50.6264 154.711 50.4739 154.923 50.169C155.135 49.8641 155.242 49.5003 155.242 49.0775C155.242 48.6617 155.135 48.3014 154.923 47.9965C154.711 47.6916 154.402 47.5391 153.996 47.5391C153.59 47.5391 153.281 47.6916 153.069 47.9965C152.857 48.3014 152.753 48.6617 152.753 49.0775C152.75 49.5003 152.857 49.8641 153.069 50.169Z" fill="white"/>
</g>
<defs>
<clipPath id="clip0">
<rect width="219" height="53" fill="white"/>
</clipPath>
</defs>
</svg>
