<svg width="219" height="53" viewBox="0 0 219 53" fill="none" xmlns="http://www.w3.org/2000/svg">
<g clip-path="url(#clip0)">
<path d="M37.6207 4.449C34.2985 -1.48993 25.6961 -1.47607 22.3773 4.449C22.3773 4.45247 9.27241 25.5852 9.26894 25.5852C16.8785 17.8584 30.8686 16.9021 33.5938 16.9506C38.6726 17.4911 42.0955 11.7739 39.4051 7.33531C38.8982 6.50372 37.6207 4.449 37.6207 4.449Z" fill="url(#paint0_linear)"/>
<path d="M55.5337 50.5814C59.7342 48.2391 61.2374 42.9412 58.8906 38.7486C58.8906 38.7486 57.3875 35.6995 55.6552 33.5339C50.6389 27.2588 42.5398 26.0495 36.607 27.7682C27.8345 30.308 23.4882 38.863 19.3884 43.0382C19.3849 43.0417 19.3918 43.0486 19.3953 43.0556C25.8523 36.7181 37.1764 37.47 42.4739 45.2974C43.2793 46.4859 44.2305 48.1179 44.5568 48.5129C47.1813 51.7076 51.7949 52.6673 55.5337 50.5814Z" fill="url(#paint1_linear)"/>
<path d="M19.3884 43.0417C23.0959 39.2649 27.0083 31.9053 34.2117 28.6552C32.535 29.3031 30.577 30.0446 29.8723 30.0446C26.3175 30.0446 23.4361 27.1687 23.4361 23.6206C23.4361 20.5264 25.6336 17.9485 28.5531 17.3386C23.0265 18.0905 14.5907 20.1799 9.2724 25.5852L1.10741 38.7521C-1.23933 42.9447 0.263836 48.2426 4.46436 50.5849C8.31773 52.7332 13.3306 51.7665 15.7329 48.253C16.4619 47.1858 17.3853 45.734 19.3918 43.0625C19.3918 43.0521 19.3849 43.0452 19.3884 43.0417Z" fill="url(#paint2_linear)"/>
<path d="M77.5986 22.1272H80.5772L87.2251 40.3876H83.2363L82.0144 36.6177H74.8874L73.7175 40.3876H69.7287L75.79 23.3469C76.1093 22.5361 76.7134 22.1272 77.5986 22.1272ZM78.4491 25.7897L75.8976 33.5408H81.0042L78.4491 25.7897Z" fill="url(#paint3_linear)"/>
<path d="M101.774 40.3876H98.1048V32.1063V31.3613C98.1048 30.5124 97.8479 29.8922 97.3341 29.5041C96.8203 29.1161 96.2441 28.9186 95.6053 28.9186C94.9665 28.9186 94.4007 29.1126 93.9043 29.5041C93.4078 29.8922 93.1614 30.5124 93.1614 31.3613V40.3841H89.4399V32.1028C89.4399 29.6947 90.0682 28.087 91.3284 27.2727C92.5886 26.4584 93.9772 26.0149 95.5046 25.9456C96.3204 25.9456 97.1189 26.0357 97.8965 26.2124C98.6776 26.3891 99.3858 26.7426 100.025 27.2727C100.556 26.8119 101.184 26.4862 101.913 26.2921C102.639 26.0981 103.392 25.9837 104.173 25.9456C105.732 25.9456 107.169 26.351 108.481 27.1653C109.793 27.9795 110.449 29.6254 110.449 32.1028V40.3841H108.589C108.058 40.3841 107.624 40.2143 107.287 39.8782C106.95 39.5421 106.78 39.109 106.78 38.5789V31.3648C106.78 30.5159 106.523 29.8957 106.009 29.5076C105.496 29.1195 104.919 28.922 104.281 28.922C103.642 28.922 103.066 29.1161 102.552 29.5076C102.038 29.8957 101.781 30.5159 101.781 31.3648V32.1098V40.3876H101.774Z" fill="url(#paint4_linear)"/>
<path d="M121.857 39.8054C121.114 40.1935 120.322 40.4326 119.489 40.5227C118.656 40.6093 117.92 40.6544 117.281 40.6544C116.004 40.6544 114.89 40.3079 113.931 39.6183C112.973 38.9288 112.494 37.7854 112.494 36.195C112.494 34.7085 112.928 33.6482 113.796 33.0107C114.664 32.3731 115.771 31.9504 117.122 31.7356C117.299 31.7356 117.511 31.7078 117.76 31.6559C118.007 31.6039 118.292 31.5588 118.611 31.5242C120.17 31.3128 120.951 30.852 120.951 30.1451C120.951 29.615 120.677 29.2685 120.128 29.1091C119.58 28.9497 119.073 28.87 118.611 28.87C118.115 28.87 117.67 28.9393 117.281 29.0814C116.893 29.2235 116.608 29.4903 116.431 29.8783H112.869C113.011 28.7799 113.508 27.8791 114.358 27.1722C115.317 26.3579 116.681 25.9525 118.455 25.9525C120.44 25.9525 121.93 26.2886 122.923 26.9608C123.95 27.6677 124.464 28.6587 124.464 29.9338V34.7639C124.464 36.1811 124.207 37.2864 123.693 38.0799C123.18 38.8768 122.565 39.452 121.857 39.8054ZM121.006 33.274C120.51 33.5235 119.819 33.7522 118.934 33.9635L117.712 34.2303C117.073 34.407 116.611 34.6357 116.33 34.9199C116.08 35.3079 115.959 35.6995 115.959 36.0875C115.959 36.6177 116.118 37.0439 116.438 37.3626C116.757 37.6468 117.219 37.7854 117.82 37.7854C118.812 37.7854 119.593 37.5012 120.159 36.9365C120.725 36.3717 121.01 35.5921 121.01 34.6011V33.274H121.006Z" fill="url(#paint5_linear)"/>
<path d="M126.356 40.3875V37.574L133.962 29.1888H128.592C128.095 29.1888 127.668 29.019 127.314 28.6829C126.96 28.3468 126.783 27.931 126.783 27.4355V26.2678H138.378V29.2928L130.876 37.3107H138.642V40.391H126.356V40.3875Z" fill="url(#paint6_linear)"/>
<path d="M140.908 22.1272H142.821C143.318 22.1272 143.745 22.3039 144.099 22.6574C144.453 23.0108 144.63 23.437 144.63 23.9325V25.0482H140.908V22.1272ZM140.908 26.2679H142.821C143.318 26.2679 143.745 26.4446 144.099 26.798C144.453 27.1514 144.63 27.5776 144.63 28.0731V40.3876H140.908V26.2679Z" fill="url(#paint7_linear)"/>
<path d="M158.488 40.3876H156.627C156.096 40.3876 155.662 40.2178 155.326 39.8817C154.989 39.5456 154.819 39.1125 154.819 38.5823V31.3648C154.819 30.5159 154.562 29.8957 154.048 29.5076C153.534 29.1195 152.958 28.922 152.319 28.922C151.681 28.922 151.115 29.1161 150.618 29.5076C150.122 29.8957 149.872 30.5159 149.872 31.3648V40.3876H146.15V32.1063C146.15 29.6982 146.779 28.0904 148.039 27.2762C149.296 26.4619 150.688 26.0184 152.215 25.9491C153.774 25.9491 155.211 26.3545 156.523 27.1687C157.836 27.983 158.492 29.6289 158.492 32.1063V40.3876H158.488Z" fill="url(#paint8_linear)"/>
<path d="M169.795 39.5386V38.6378C169.156 39.6287 168.299 40.249 167.216 40.495C166.132 40.741 165.063 40.6544 163.997 40.2282C162.935 39.802 162.022 39.0154 161.258 37.8651C160.495 36.7147 160.116 35.204 160.116 33.326C160.116 31.1327 160.623 29.3551 161.633 27.9899C162.644 26.6282 164.265 25.9456 166.5 25.9456C168.201 25.9456 169.781 26.4065 171.232 27.3247C172.687 28.2464 173.412 29.9442 173.412 32.4216V39.9059C173.412 42.3834 172.687 44.0743 171.232 44.9752C169.778 45.8761 168.201 46.33 166.5 46.33C163.237 46.33 161.217 44.8088 160.439 41.7666H164.32C164.605 42.2621 165.039 42.6432 165.622 42.9066C166.209 43.1734 166.792 43.2427 167.379 43.1179C167.965 42.9932 168.497 42.6502 168.976 42.0819C169.451 41.5206 169.725 40.6717 169.795 39.5386ZM163.734 33.4334C163.734 35.8762 164.442 37.2275 165.862 37.4943C167.278 37.7611 168.326 37.4319 169 36.5137C169.319 36.1257 169.548 35.5124 169.691 34.6842C169.833 33.8526 169.84 33.0315 169.719 32.2172C169.594 31.4029 169.302 30.6787 168.84 30.0412C168.378 29.4036 167.705 29.0849 166.82 29.0849C165.615 29.0849 164.799 29.5284 164.372 30.4119C163.945 31.292 163.734 32.3003 163.734 33.4334Z" fill="url(#paint9_linear)"/>
<path d="M178.887 38.9842V30.2144H175.721V29.4383C175.721 29.1299 175.828 28.8631 176.047 28.6483C176.266 28.4335 176.53 28.3226 176.839 28.3226H184.226V30.2144H181.091V38.9842H178.887Z" fill="#768589"/>
<path d="M185.427 38.9842V34.9857C185.427 34.1783 185.545 33.5027 185.785 32.9552C186.024 32.4078 186.347 31.9677 186.764 31.6385C187.156 31.3302 187.618 31.1015 188.145 30.9559C188.673 30.8104 189.215 30.7376 189.777 30.7376C189.819 30.7376 189.871 30.7376 189.933 30.7376C189.996 30.7376 190.048 30.7376 190.089 30.7376V32.9379H189.374C188.774 32.9379 188.329 33.0834 188.038 33.371C187.746 33.6586 187.604 34.116 187.604 34.7327V38.9773H185.427V38.9842Z" fill="#768589"/>
<path d="M196.373 38.6447C195.939 38.8734 195.477 39.012 194.991 39.0639C194.505 39.1159 194.075 39.1402 193.703 39.1402C192.957 39.1402 192.308 38.9392 191.749 38.5373C191.19 38.1353 190.912 37.4701 190.912 36.538C190.912 35.6717 191.165 35.0515 191.672 34.6773C192.179 34.3031 192.825 34.0571 193.613 33.9323C193.717 33.9323 193.842 33.9185 193.984 33.8873C194.13 33.8561 194.293 33.8318 194.481 33.8111C195.39 33.6863 195.845 33.4195 195.845 33.0037C195.845 32.6953 195.685 32.4909 195.363 32.4008C195.043 32.3073 194.748 32.2622 194.477 32.2622C194.189 32.2622 193.929 32.3038 193.7 32.387C193.471 32.4701 193.307 32.626 193.203 32.8513H191.124C191.207 32.2102 191.495 31.6836 191.992 31.2712C192.551 30.7965 193.346 30.5575 194.384 30.5575C195.543 30.5575 196.411 30.755 196.991 31.1465C197.591 31.5588 197.89 32.1375 197.89 32.8825V35.7029C197.89 36.5276 197.741 37.1755 197.439 37.6398C197.143 38.1007 196.786 38.4368 196.373 38.6447ZM195.876 34.8332C195.588 34.9787 195.182 35.1104 194.665 35.2352L193.95 35.3911C193.578 35.495 193.307 35.6302 193.141 35.793C192.995 36.0217 192.922 36.2469 192.922 36.4756C192.922 36.784 193.016 37.0335 193.2 37.2206C193.387 37.3869 193.655 37.4701 194.009 37.4701C194.588 37.4701 195.043 37.3037 195.376 36.9746C195.706 36.6454 195.873 36.188 195.873 35.6094V34.8332H195.876Z" fill="#768589"/>
<path d="M204.09 38.9842H201.885L198.997 30.7411H201.295L202.941 36.5345L204.399 31.4826C204.565 30.9871 204.895 30.7376 205.392 30.7376H207.006L204.09 38.9842Z" fill="#768589"/>
<path d="M213.921 36.4444H215.473C215.244 37.3107 214.81 37.9725 214.168 38.4264C213.525 38.9011 212.72 39.1402 211.745 39.1402C210.564 39.1402 209.644 38.759 208.981 37.9933C208.318 37.2483 207.988 36.1846 207.988 34.802C207.988 33.4784 208.308 32.4459 208.95 31.7044C209.613 30.9386 210.533 30.5575 211.713 30.5575C212.956 30.5575 213.918 30.9282 214.602 31.6732C215.265 32.4389 215.594 33.5027 215.594 34.8644C215.594 34.9476 215.594 35.0203 215.594 35.0827C215.594 35.1451 215.594 35.1866 215.594 35.2074C215.594 35.3114 215.584 35.3841 215.563 35.4257H210.193C210.214 36.0667 210.37 36.5414 210.658 36.8498C210.929 37.179 211.331 37.3453 211.87 37.3453C212.22 37.3453 212.522 37.2726 212.769 37.127C212.831 37.1062 212.887 37.0716 212.939 37.0196C212.991 36.9676 213.046 36.9122 213.109 36.8498C213.13 36.7875 213.206 36.7043 213.341 36.6038C213.477 36.5033 213.671 36.4444 213.921 36.4444ZM210.193 34.0259H213.359C213.317 33.468 213.171 33.0557 212.925 32.7854C212.654 32.4978 212.272 32.3523 211.776 32.3523C211.321 32.3523 210.95 32.4978 210.658 32.7854C210.366 33.073 210.214 33.4888 210.193 34.0259Z" fill="#768589"/>
<path d="M216.827 28.326H217.945C218.233 28.326 218.483 28.423 218.691 28.6206C218.899 28.8181 219 29.0606 219 29.3482V38.9842H216.827V28.326Z" fill="#768589"/>
<path d="M70.3709 51.2675V48.5891H69.8051V47.7263H70.3709V45.235H72.8773C73.7626 45.235 74.4291 45.5157 74.8734 46.077C75.3178 46.6383 75.5434 47.3625 75.5434 48.253C75.5434 49.1435 75.3213 49.8677 74.8734 50.429C74.4291 50.9903 73.7626 51.271 72.8773 51.271H70.3709V51.2675ZM71.4297 46.0978V47.7298H73.0822V48.5926H71.4297V50.4082H72.4712C72.8704 50.4082 73.2071 50.3562 73.4814 50.2488C73.7556 50.1414 73.9639 49.9855 74.1028 49.7811C74.2451 49.5766 74.3423 49.3514 74.3979 49.1089C74.4534 48.8663 74.4812 48.5822 74.4812 48.2565C74.4812 47.9308 74.4534 47.6466 74.3979 47.4041C74.3423 47.1616 74.2416 46.9398 74.1028 46.7319C73.9639 46.524 73.7556 46.3715 73.4814 46.2641C73.2071 46.1567 72.8704 46.1047 72.4712 46.1047H71.4297V46.0978Z" fill="#FF8903"/>
<path d="M77.2202 46.1463V45.235H78.1853V46.1463H77.2202ZM77.2202 51.2675V46.8982H78.1853V51.2675H77.2202Z" fill="#FF8903"/>
<path d="M87.2008 48.3604H86.2357C86.1975 48.0971 86.0899 47.8927 85.9128 47.7506C85.7393 47.6085 85.5101 47.5392 85.2359 47.5392C85.0936 47.5392 84.9616 47.5635 84.8332 47.6085C84.7047 47.6536 84.5798 47.7298 84.4513 47.8372C84.3229 47.9446 84.2222 48.111 84.1458 48.3327C84.0695 48.5545 84.0313 48.8213 84.0313 49.1296C84.0313 49.542 84.1285 49.8919 84.3194 50.1865C84.5103 50.4775 84.802 50.6265 85.1908 50.6265C85.472 50.6265 85.7046 50.5399 85.8885 50.3632C86.0725 50.1865 86.1871 49.9439 86.2322 49.6286H87.1973C87.107 50.1969 86.8918 50.6334 86.5481 50.9349C86.2079 51.2363 85.7531 51.3853 85.1908 51.3853C84.5242 51.3853 84.0035 51.174 83.6286 50.7547C83.2537 50.3355 83.0662 49.7915 83.0662 49.1296C83.0662 48.4367 83.2537 47.8719 83.6251 47.4353C83.9966 46.9987 84.5312 46.7804 85.2255 46.7804C85.7601 46.7804 86.2114 46.9155 86.5794 47.1858C86.9508 47.4561 87.1556 47.8476 87.2008 48.3604Z" fill="#FF8903"/>
<path d="M92.6788 46.8982V51.2675H91.7311V50.6577H91.7137C91.5957 50.8725 91.4187 51.0458 91.1861 51.1809C90.9535 51.316 90.7139 51.3853 90.4709 51.3853C89.9016 51.3853 89.485 51.2433 89.2281 50.9626C88.9678 50.682 88.8393 50.2488 88.8393 49.6702V46.8982H89.8044V49.5766C89.8044 49.9474 89.8738 50.2142 90.0162 50.3805C90.1585 50.5468 90.3668 50.6265 90.641 50.6265C91.3562 50.6265 91.7172 50.228 91.7172 49.4346V46.8982H92.6788ZM89.2837 45.0826H90.4189L91.1895 46.2919H90.4883L89.2837 45.0826Z" fill="#FF8903"/>
<path d="M94.5395 51.2675V46.8982H95.4525V47.5392L95.4699 47.5565C95.6226 47.314 95.817 47.1234 96.0531 46.9848C96.2892 46.8462 96.5495 46.7769 96.8307 46.7769C97.3167 46.7769 97.6951 46.9051 97.9694 47.1581C98.2436 47.411 98.379 47.7818 98.379 48.2634V51.2641H97.4139V48.5163C97.4035 48.1733 97.3306 47.9238 97.1952 47.7679C97.0598 47.612 96.8481 47.5358 96.5599 47.5358C96.244 47.5358 95.9871 47.6466 95.7927 47.8649C95.5983 48.0832 95.5011 48.357 95.5011 48.6861V51.2641H94.5395V51.2675Z" fill="#FF8903"/>
<path d="M104.294 46.8982V51.0388C104.294 51.6937 104.11 52.1823 103.746 52.508C103.378 52.8337 102.847 52.9965 102.146 52.9965C101.823 52.9965 101.528 52.9584 101.26 52.8787C100.993 52.799 100.754 52.6535 100.545 52.4387C100.337 52.2239 100.219 51.9571 100.191 51.6348H101.156C101.212 51.8878 101.33 52.0575 101.507 52.1476C101.684 52.2343 101.916 52.2793 102.205 52.2793C102.954 52.2793 103.329 51.9085 103.329 51.1636V50.4948H103.312C103.177 50.7374 102.993 50.9245 102.757 51.0596C102.524 51.1948 102.271 51.2606 102 51.2606C101.555 51.2606 101.181 51.1532 100.878 50.9384C100.576 50.7235 100.361 50.4498 100.229 50.1137C100.101 49.7776 100.035 49.393 100.035 48.9599C100.035 48.3466 100.215 47.8268 100.573 47.4041C100.931 46.9814 101.413 46.77 102.017 46.77C102.642 46.77 103.076 47.0091 103.312 47.4873H103.329V46.8878H104.294V46.8982ZM102.153 50.5087C102.548 50.5087 102.843 50.3597 103.038 50.0652C103.232 49.7707 103.329 49.4103 103.329 48.9876C103.329 48.5753 103.232 48.2322 103.038 47.955C102.843 47.6778 102.548 47.5392 102.153 47.5392C101.757 47.5392 101.465 47.6882 101.281 47.9862C101.094 48.2842 101.003 48.6411 101.003 49.0603C101.003 49.4554 101.101 49.7949 101.295 50.079C101.486 50.3666 101.774 50.5087 102.153 50.5087Z" fill="#FF8903"/>
<path d="M109.45 51.2675V45.235H110.508V47.9827L113.199 45.235H114.504L112.091 47.6432L114.674 51.2675H113.355L111.373 48.3847L110.508 49.2371V51.2641H109.45V51.2675Z" fill="#FF8903"/>
<path d="M115.959 51.2675V45.235H116.924V47.4734H116.941C117.066 47.269 117.243 47.1027 117.479 46.9744C117.712 46.8462 117.972 46.7804 118.253 46.7804C118.739 46.7804 119.118 46.9086 119.392 47.1616C119.666 47.4145 119.802 47.7852 119.802 48.2669V51.2675H118.837V48.5198C118.826 48.1768 118.753 47.9273 118.618 47.7714C118.483 47.6155 118.271 47.5392 117.983 47.5392C117.667 47.5392 117.41 47.6501 117.215 47.8684C117.021 48.0867 116.924 48.3604 116.924 48.6896V51.2675H115.959Z" fill="#FF8903"/>
<path d="M125.332 48.0486V50.2973C125.332 50.4152 125.349 50.5018 125.384 50.5503C125.419 50.6023 125.478 50.6265 125.561 50.6265H125.662C125.682 50.6265 125.731 50.6196 125.797 50.6092V51.2779C125.589 51.3507 125.384 51.3888 125.186 51.3888C124.756 51.3888 124.509 51.2121 124.44 50.8552C124.259 51.0284 124.03 51.1636 123.752 51.2537C123.475 51.3438 123.2 51.3888 122.923 51.3888C122.499 51.3888 122.145 51.2779 121.857 51.0562C121.569 50.8344 121.426 50.5191 121.426 50.1137C121.426 49.8538 121.471 49.6355 121.565 49.4588C121.659 49.2821 121.794 49.147 121.975 49.0534C122.155 48.9599 122.329 48.894 122.492 48.8559C122.655 48.8178 122.86 48.7832 123.11 48.7554C123.211 48.7346 123.343 48.7139 123.509 48.6965C123.676 48.6792 123.797 48.6619 123.884 48.6446C123.971 48.6272 124.061 48.5995 124.155 48.5649C124.249 48.5267 124.315 48.4748 124.356 48.4089C124.398 48.3396 124.419 48.2495 124.419 48.1387C124.419 47.7437 124.117 47.5462 123.513 47.5462C123.232 47.5462 123.006 47.6051 122.836 47.7194C122.666 47.8338 122.572 48.007 122.548 48.2392H121.583C121.617 47.7194 121.819 47.3487 122.187 47.1234C122.555 46.8982 123.016 46.7839 123.572 46.7839C124.051 46.7839 124.464 46.8878 124.808 47.0957C125.158 47.3036 125.332 47.6189 125.332 48.0486ZM124.367 49.7984V49.0811C124.276 49.1366 124.172 49.1816 124.054 49.2128C123.936 49.244 123.78 49.2717 123.586 49.2925C123.391 49.3133 123.256 49.3306 123.183 49.3445C122.94 49.3826 122.749 49.4588 122.607 49.5628C122.464 49.6667 122.395 49.84 122.395 50.0687C122.395 50.2662 122.489 50.4082 122.673 50.4948C122.857 50.5815 123.061 50.6265 123.284 50.6265C123.544 50.6265 123.79 50.5572 124.02 50.4186C124.249 50.28 124.367 50.0721 124.367 49.7984ZM123.054 46.2919L123.815 45.0826H124.957L123.756 46.2919H123.054Z" fill="#FF8903"/>
<path d="M126.779 47.6189V46.9017H127.508V45.5919H128.474V46.9017H129.345V47.6189H128.474V49.9508C128.474 50.1761 128.501 50.332 128.553 50.4186C128.605 50.5052 128.734 50.5503 128.939 50.5503C129.119 50.5503 129.255 50.5399 129.345 50.5156V51.2606C129.064 51.2952 128.855 51.3126 128.72 51.3126C128.244 51.3126 127.928 51.226 127.769 51.0562C127.609 50.8829 127.522 50.5988 127.512 50.2003V47.6224H126.779V47.6189Z" fill="#FF8903"/>
<path d="M134.219 51.2675V45.235H135.278V47.9827L137.968 45.235H139.273L136.861 47.6432L139.443 51.2675H138.124L136.142 48.3847L135.278 49.2371V51.2641H134.219V51.2675Z" fill="#FF8903"/>
<path d="M140.731 51.2675V45.235H141.697V47.4734H141.714C141.839 47.269 142.016 47.1027 142.252 46.9744C142.485 46.8462 142.745 46.7804 143.026 46.7804C143.512 46.7804 143.891 46.9086 144.165 47.1616C144.439 47.4145 144.574 47.7852 144.574 48.2669V51.2675H143.609V48.5198C143.599 48.1768 143.526 47.9273 143.391 47.7714C143.255 47.6155 143.043 47.5392 142.755 47.5392C142.439 47.5392 142.183 47.6501 141.988 47.8684C141.794 48.0867 141.697 48.3604 141.697 48.6896V51.2675H140.731Z" fill="#FF8903"/>
<path d="M150.101 48.0486V50.2973C150.101 50.4152 150.118 50.5018 150.153 50.5503C150.188 50.6023 150.247 50.6265 150.33 50.6265H150.431C150.452 50.6265 150.5 50.6196 150.566 50.6092V51.2779C150.358 51.3507 150.153 51.3888 149.955 51.3888C149.525 51.3888 149.278 51.2121 149.209 50.8552C149.028 51.0284 148.799 51.1636 148.521 51.2537C148.244 51.3438 147.969 51.3888 147.692 51.3888C147.268 51.3888 146.914 51.2779 146.626 51.0562C146.338 50.8344 146.196 50.5191 146.196 50.1137C146.196 49.8538 146.241 49.6355 146.334 49.4588C146.428 49.2821 146.564 49.147 146.744 49.0534C146.925 48.9599 147.098 48.894 147.261 48.8559C147.424 48.8178 147.629 48.7832 147.879 48.7554C147.98 48.7346 148.112 48.7139 148.278 48.6965C148.445 48.6792 148.567 48.6619 148.653 48.6446C148.74 48.6272 148.83 48.5995 148.924 48.5649C149.018 48.5267 149.084 48.4748 149.126 48.4089C149.167 48.3396 149.188 48.2495 149.188 48.1387C149.188 47.7437 148.886 47.5462 148.282 47.5462C148.001 47.5462 147.775 47.6051 147.605 47.7194C147.435 47.8338 147.341 48.007 147.317 48.2392H146.352C146.386 47.7194 146.588 47.3487 146.956 47.1234C147.324 46.8982 147.786 46.7839 148.341 46.7839C148.82 46.7839 149.233 46.8878 149.577 47.0957C149.931 47.3036 150.101 47.6189 150.101 48.0486ZM149.136 49.7984V49.0811C149.046 49.1366 148.942 49.1816 148.823 49.2128C148.705 49.244 148.549 49.2717 148.355 49.2925C148.16 49.3133 148.025 49.3306 147.952 49.3445C147.709 49.3826 147.518 49.4588 147.376 49.5628C147.234 49.6667 147.164 49.84 147.164 50.0687C147.164 50.2662 147.258 50.4082 147.442 50.4948C147.626 50.5815 147.831 50.6265 148.053 50.6265C148.313 50.6265 148.56 50.5572 148.789 50.4186C149.021 50.28 149.136 50.0721 149.136 49.7984Z" fill="#FF8903"/>
<path d="M155.614 50.7478C155.218 51.174 154.68 51.3853 153.996 51.3853C153.312 51.3853 152.774 51.174 152.378 50.7478C151.983 50.3216 151.785 49.7672 151.785 49.0777C151.785 48.402 151.983 47.8511 152.378 47.4214C152.774 46.9918 153.312 46.7804 153.996 46.7804C154.68 46.7804 155.218 46.9952 155.614 47.4214C156.01 47.8476 156.207 48.402 156.207 49.0777C156.204 49.7672 156.006 50.3216 155.614 50.7478ZM153.069 50.1691C153.281 50.4741 153.59 50.6265 153.996 50.6265C154.402 50.6265 154.711 50.4741 154.923 50.1691C155.135 49.8642 155.242 49.5004 155.242 49.0777C155.242 48.6619 155.135 48.3015 154.923 47.9966C154.711 47.6917 154.402 47.5392 153.996 47.5392C153.59 47.5392 153.281 47.6917 153.069 47.9966C152.857 48.3015 152.753 48.6619 152.753 49.0777C152.75 49.5004 152.857 49.8642 153.069 50.1691Z" fill="#FF8903"/>
</g>
<defs>
<linearGradient id="paint0_linear" x1="23.2793" y1="21.7067" x2="32.2619" y2="5.55373" gradientUnits="userSpaceOnUse">
<stop offset="0.1455" stop-color="#FF8903"/>
<stop offset="1" stop-color="#FFE100"/>
</linearGradient>
<linearGradient id="paint1_linear" x1="19.3872" y1="39.3741" x2="59.9985" y2="39.3741" gradientUnits="userSpaceOnUse">
<stop offset="0.1455" stop-color="#FF8903"/>
<stop offset="1" stop-color="#FFE100"/>
</linearGradient>
<linearGradient id="paint2_linear" x1="24.2173" y1="16.9328" x2="11.5546" y2="49.2262" gradientUnits="userSpaceOnUse">
<stop offset="0.0121" stop-color="#7A0041"/>
<stop offset="1" stop-color="#F00080"/>
</linearGradient>
<linearGradient id="paint3_linear" x1="69.7279" y1="31.2579" x2="87.225" y2="31.2579" gradientUnits="userSpaceOnUse">
<stop offset="0.0121" stop-color="#7A0041"/>
<stop offset="1" stop-color="#F00080"/>
</linearGradient>
<linearGradient id="paint4_linear" x1="89.4373" y1="33.1689" x2="110.444" y2="33.1689" gradientUnits="userSpaceOnUse">
<stop offset="0.0121" stop-color="#7A0041"/>
<stop offset="1" stop-color="#F00080"/>
</linearGradient>
<linearGradient id="paint5_linear" x1="112.497" y1="33.3016" x2="124.463" y2="33.3016" gradientUnits="userSpaceOnUse">
<stop offset="0.0121" stop-color="#7A0041"/>
<stop offset="1" stop-color="#F00080"/>
</linearGradient>
<linearGradient id="paint6_linear" x1="126.356" y1="33.3281" x2="138.642" y2="33.3281" gradientUnits="userSpaceOnUse">
<stop offset="0.0121" stop-color="#7A0041"/>
<stop offset="1" stop-color="#F00080"/>
</linearGradient>
<linearGradient id="paint7_linear" x1="140.907" y1="31.2579" x2="144.63" y2="31.2579" gradientUnits="userSpaceOnUse">
<stop offset="0.0121" stop-color="#7A0041"/>
<stop offset="1" stop-color="#F00080"/>
</linearGradient>
<linearGradient id="paint8_linear" x1="146.151" y1="33.1689" x2="158.489" y2="33.1689" gradientUnits="userSpaceOnUse">
<stop offset="0.0121" stop-color="#7A0041"/>
<stop offset="1" stop-color="#F00080"/>
</linearGradient>
<linearGradient id="paint9_linear" x1="160.117" y1="36.1416" x2="173.412" y2="36.1416" gradientUnits="userSpaceOnUse">
<stop offset="0.0121" stop-color="#7A0041"/>
<stop offset="1" stop-color="#F00080"/>
</linearGradient>
<clipPath id="clip0">
<rect width="219" height="53" fill="white"/>
</clipPath>
</defs>
</svg>
